<?xml version="1.0" encoding="UTF-8" standalone="no"?>
<!DOCTYPE svg PUBLIC "-//W3C//DTD SVG 1.1//EN"
 "http://www.w3.org/Graphics/SVG/1.1/DTD/svg11.dtd">
<!-- Generated by graphviz version 2.40.1 (20161225.0304)
 -->
<!-- Title: G Pages: 1 -->
<svg width="932pt" height="154pt"
 viewBox="0.00 0.00 931.55 154.00" xmlns="http://www.w3.org/2000/svg" xmlns:xlink="http://www.w3.org/1999/xlink">
<g id="graph0" class="graph" transform="scale(1 1) rotate(0) translate(4 150)">
<title>G</title>
<g id="clust1" class="cluster">
<title>cluster_move1</title>
<polygon fill="transparent" stroke="#ff8c00" points="58.4424,-42 58.4424,-103 200.9008,-103 200.9008,-42 58.4424,-42"/>
<text text-anchor="middle" x="129.6716" y="-91.8" font-family="Arial" font-size="8.00" fill="#000000">Move To Pickup Position</text>
</g>
<g id="clust2" class="cluster">
<title>cluster_move2</title>
<polygon fill="transparent" stroke="#ff8c00" points="656.2216,-77 656.2216,-138 790.664,-138 790.664,-77 656.2216,-77"/>
<text text-anchor="middle" x="723.4428" y="-126.8" font-family="Arial" font-size="8.00" fill="#000000">Move To Place Position</text>
</g>
<g id="clust3" class="cluster">
<title>cluster_close1</title>
<polygon fill="transparent" stroke="#ff8c00" points="237.3432,-42 237.3432,-103 371.7856,-103 371.7856,-42 237.3432,-42"/>
<text text-anchor="middle" x="304.5644" y="-91.8" font-family="Arial" font-size="8.00" fill="#000000">Close Gripper Signal</text>
</g>
<g id="clust4" class="cluster">
<title>cluster_wait1</title>
<polygon fill="transparent" stroke="#ff8c00" points="408.228,-42 408.228,-103 542.2312,-103 542.2312,-42 408.228,-42"/>
<text text-anchor="middle" x="475.2296" y="-91.8" font-family="Arial" font-size="8.00" fill="#000000">Wait For Gripper Closed</text>
</g>
<g id="clust5" class="cluster">
<title>cluster_error1</title>
<polygon fill="transparent" stroke="#ff8c00" points="656.2216,-8 656.2216,-69 790.664,-69 790.664,-8 656.2216,-8"/>
<text text-anchor="middle" x="723.4428" y="-57.8" font-family="Arial" font-size="8.00" fill="#000000">Error</text>
</g>
<!-- move1s -->
<g id="node1" class="node">
<title>move1s</title>
<ellipse fill="none" stroke="#000000" cx="73.4424" cy="-68" rx="7" ry="7"/>
</g>
<!-- move1e -->
<g id="node2" class="node">
<title>move1e</title>
<ellipse fill="none" stroke="#6495ed" cx="185.9008" cy="-68" rx="7" ry="7"/>
</g>
<!-- move1s&#45;&gt;move1e -->
<g id="edge1" class="edge">
<title>move1s&#45;&gt;move1e</title>
<path fill="none" stroke="#000000" d="M80.4772,-68C99.1743,-68 150.2745,-68 173.7787,-68"/>
<polygon fill="#000000" stroke="#000000" points="173.8687,-69.7501 178.8687,-68 173.8686,-66.2501 173.8687,-69.7501"/>
<text text-anchor="middle" x="129.6716" y="-70.4" font-family="Arial" font-size="8.00" fill="#000000">[12;12]</text>
</g>
<!-- close1s -->
<g id="node5" class="node">
<title>close1s</title>
<ellipse fill="none" stroke="#000000" cx="252.3432" cy="-68" rx="7" ry="7"/>
</g>
<!-- move1e&#45;&gt;close1s -->
<g id="edge7" class="edge">
<title>move1e&#45;&gt;close1s</title>
<path fill="none" stroke="#000000" d="M193.0113,-68C204.2419,-68 226.227,-68 240.0523,-68"/>
<polygon fill="#000000" stroke="#000000" points="240.0824,-69.7501 245.0824,-68 240.0824,-66.2501 240.0824,-69.7501"/>
<text text-anchor="middle" x="219.122" y="-70.4" font-family="Arial" font-size="8.00" fill="#000000">[ε;ε]</text>
</g>
<!-- move2s -->
<g id="node3" class="node">
<title>move2s</title>
<ellipse fill="none" stroke="#000000" cx="671.2216" cy="-99" rx="7" ry="7"/>
</g>
<!-- move2e -->
<g id="node4" class="node">
<title>move2e</title>
<ellipse fill="none" stroke="#6495ed" cx="775.664" cy="-99" rx="7" ry="7"/>
</g>
<!-- move2s&#45;&gt;move2e -->
<g id="edge2" class="edge">
<title>move2s&#45;&gt;move2e</title>
<path fill="none" stroke="#000000" d="M678.4003,-99C695.9897,-99 741.4011,-99 763.3825,-99"/>
<polygon fill="#000000" stroke="#000000" points="763.4351,-100.7501 768.435,-99 763.435,-97.2501 763.4351,-100.7501"/>
<text text-anchor="middle" x="723.4428" y="-101.4" font-family="Arial" font-size="8.00" fill="#000000">[8;8]</text>
</g>
<!-- merge1 -->
<g id="node13" class="node">
<title>merge1</title>
<ellipse fill="none" stroke="#000000" cx="842.1064" cy="-73" rx="7" ry="7"/>
</g>
<!-- move2e&#45;&gt;merge1 -->
<g id="edge12" class="edge">
<title>move2e&#45;&gt;merge1</title>
<path fill="none" stroke="#000000" d="M782.2777,-96.412C793.6204,-91.9734 816.9056,-82.8615 830.8459,-77.4064"/>
<polygon fill="#000000" stroke="#000000" points="831.501,-79.0293 835.5195,-75.5776 830.2255,-75.77 831.501,-79.0293"/>
<text text-anchor="middle" x="808.8852" y="-91.4" font-family="Arial" font-size="8.00" fill="#000000">[ε;ε]</text>
</g>
<!-- close1e -->
<g id="node6" class="node">
<title>close1e</title>
<ellipse fill="none" stroke="#6495ed" cx="356.7856" cy="-68" rx="7" ry="7"/>
</g>
<!-- close1s&#45;&gt;close1e -->
<g id="edge3" class="edge">
<title>close1s&#45;&gt;close1e</title>
<path fill="none" stroke="#000000" d="M259.5219,-68C277.1113,-68 322.5227,-68 344.5041,-68"/>
<polygon fill="#000000" stroke="#000000" points="344.5567,-69.7501 349.5566,-68 344.5566,-66.2501 344.5567,-69.7501"/>
<text text-anchor="middle" x="304.5644" y="-70.4" font-family="Arial" font-size="8.00" fill="#000000">[ε;ε]</text>
</g>
<!-- wait1s -->
<g id="node7" class="node">
<title>wait1s</title>
<ellipse fill="none" stroke="#000000" cx="423.228" cy="-68" rx="7" ry="7"/>
</g>
<!-- close1e&#45;&gt;wait1s -->
<g id="edge8" class="edge">
<title>close1e&#45;&gt;wait1s</title>
<path fill="none" stroke="#000000" d="M363.8961,-68C375.1267,-68 397.1118,-68 410.9371,-68"/>
<polygon fill="#000000" stroke="#000000" points="410.9672,-69.7501 415.9672,-68 410.9672,-66.2501 410.9672,-69.7501"/>
<text text-anchor="middle" x="390.0068" y="-70.4" font-family="Arial" font-size="8.00" fill="#000000">[ε;ε]</text>
</g>
<!-- wait1e -->
<g id="node8" class="node">
<title>wait1e</title>
<ellipse fill="none" stroke="#6495ed" cx="527.2312" cy="-68" rx="7" ry="7"/>
</g>
<!-- wait1s&#45;&gt;wait1e -->
<g id="edge4" class="edge">
<title>wait1s&#45;&gt;wait1e</title>
<path fill="none" stroke="#000000" d="M430.3766,-68C447.892,-68 493.1123,-68 515.0014,-68"/>
<polygon fill="#000000" stroke="#000000" points="515.0326,-69.7501 520.0326,-68 515.0326,-66.2501 515.0326,-69.7501"/>
<text text-anchor="middle" x="475.2296" y="-70.4" font-family="Arial" font-size="8.00" fill="#000000">[ε;5]</text>
</g>
<!-- choice1 -->
<g id="node12" class="node">
<title>choice1</title>
<ellipse fill="none" stroke="#6495ed" cx="597.6736" cy="-68" rx="7" ry="7"/>
<ellipse fill="none" stroke="#6495ed" cx="597.6736" cy="-68" rx="11" ry="11"/>
</g>
<!-- wait1e&#45;&gt;choice1 -->
<g id="edge9" class="edge">
<title>wait1e&#45;&gt;choice1</title>
<path fill="none" stroke="#000000" d="M534.243,-68C545.1528,-68 566.4836,-68 581.3834,-68"/>
<polygon fill="#000000" stroke="#000000" points="581.5507,-69.7501 586.5507,-68 581.5506,-66.2501 581.5507,-69.7501"/>
<text text-anchor="middle" x="560.4524" y="-70.4" font-family="Arial" font-size="8.00" fill="#000000">[ε;ε]</text>
</g>
<!-- error1s -->
<g id="node9" class="node">
<title>error1s</title>
<ellipse fill="none" stroke="#000000" cx="671.2216" cy="-35" rx="7" ry="7"/>
</g>
<!-- error1e -->
<g id="node10" class="node">
<title>error1e</title>
<ellipse fill="none" stroke="#000000" cx="775.664" cy="-35" rx="7" ry="7"/>
</g>
<!-- error1s&#45;&gt;error1e -->
<g id="edge5" class="edge">
<title>error1s&#45;&gt;error1e</title>
<path fill="none" stroke="#000000" d="M678.4003,-35C695.9897,-35 741.4011,-35 763.3825,-35"/>
<polygon fill="#000000" stroke="#000000" points="763.4351,-36.7501 768.435,-35 763.435,-33.2501 763.4351,-36.7501"/>
<text text-anchor="middle" x="723.4428" y="-37.4" font-family="Arial" font-size="8.00" fill="#000000">[ε;ε]</text>
</g>
<!-- error1e&#45;&gt;merge1 -->
<g id="edge13" class="edge">
<title>error1e&#45;&gt;merge1</title>
<path fill="none" stroke="#000000" d="M781.7956,-38.5068C793.1099,-44.9777 817.3954,-58.8672 831.4537,-66.9075"/>
<polygon fill="#000000" stroke="#000000" points="830.5866,-68.4275 835.7958,-69.3908 832.3243,-65.3893 830.5866,-68.4275"/>
<text text-anchor="middle" x="808.8852" y="-60.4" font-family="Arial" font-size="8.00" fill="#000000">[ε;ε]</text>
</g>
<!-- start -->
<g id="node11" class="node">
<title>start</title>
<ellipse fill="#000000" stroke="#000000" cx="7" cy="-68" rx="7" ry="7"/>
</g>
<!-- start&#45;&gt;move1s -->
<g id="edge6" class="edge">
<title>start&#45;&gt;move1s</title>
<path fill="none" stroke="#000000" d="M14.1105,-68C25.3411,-68 47.3262,-68 61.1515,-68"/>
<polygon fill="#000000" stroke="#000000" points="61.1816,-69.7501 66.1816,-68 61.1816,-66.2501 61.1816,-69.7501"/>
<text text-anchor="middle" x="40.2212" y="-70.4" font-family="Arial" font-size="8.00" fill="#000000">[ε;ε]</text>
</g>
<!-- choice1&#45;&gt;move2s -->
<g id="edge10" class="edge">
<title>choice1&#45;&gt;move2s</title>
<path fill="none" stroke="#000000" d="M607.9001,-72.3104C621.5397,-78.0594 645.6124,-88.2059 659.8219,-94.1951"/>
<polygon fill="#000000" stroke="#000000" points="659.2859,-95.8683 664.5731,-96.1977 660.6454,-92.643 659.2859,-95.8683"/>
<text text-anchor="middle" x="636.4476" y="-90.4" font-family="Arial" font-size="8.00" fill="#000000">GC</text>
</g>
<!-- choice1&#45;&gt;error1s -->
<g id="edge11" class="edge">
<title>choice1&#45;&gt;error1s</title>
<path fill="none" stroke="#000000" d="M607.9001,-63.4115C621.5397,-57.2916 645.6124,-46.4905 659.8219,-40.1149"/>
<polygon fill="#000000" stroke="#000000" points="660.7277,-41.6266 664.5731,-37.9831 659.2949,-38.4333 660.7277,-41.6266"/>
<text text-anchor="middle" x="636.4476" y="-57.4" font-family="Arial" font-size="8.00" fill="#000000">¬ GC</text>
</g>
<!-- end -->
<g id="node14" class="node">
<title>end</title>
<ellipse fill="#000000" stroke="#000000" cx="912.5488" cy="-73" rx="7" ry="7"/>
<ellipse fill="none" stroke="#000000" cx="912.5488" cy="-73" rx="11" ry="11"/>
</g>
<!-- merge1&#45;&gt;end -->
<g id="edge14" class="edge">
<title>merge1&#45;&gt;end</title>
<path fill="none" stroke="#000000" d="M849.1182,-73C860.028,-73 881.3588,-73 896.2586,-73"/>
<polygon fill="#000000" stroke="#000000" points="896.4259,-74.7501 901.4259,-73 896.4258,-71.2501 896.4259,-74.7501"/>
<text text-anchor="middle" x="875.3276" y="-75.4" font-family="Arial" font-size="8.00" fill="#000000">[ε;ε]</text>
</g>
</g>
</svg>
